# xmcd
#
# Track frame offsets:
#	150
#	12840
#	23835
#	40937
#	56435
#	66230
#	76460
#	85242
#	98122
#	113710
#	121962
#	135417
#	146265
#	161647
#	173520
#	186490
#
# Disc length: 2634
#
# Revision: 1
# Processed by: cddbd v1.5.1PL0 Copyright (c) Steve Scherf et al.
# Submitted via: audiograbber 1.81.02
# Normalized: r0:TRMNUM
#
DISCID=ca0a4810
DTITLE=Tina Turner - Live and Alive CD 3 - Live and Alive CD 3
DYEAR=1900
DGENRE=
TTITLE0=Rock me Baby
TTITLE1=You Got What You Wanted
TTITLE2=I Smell Trouble
TTITLE3=Crazy About You Baby
TTITLE4=Too Hoot To Hold
TTITLE5=Please Love Me
TTITLE6=My Babe 
TTITLE7=We Need Understanding
TTITLE8=If This Our Last Time
TTITLE9=Don´t Blame it On Time
TTITLE10=Freedom To Stay 
TTITLE11=Hard Times.
TTITLE12=We Had It All
TTITLE13=Soul Deep
TTITLE14=You Ain´t My Enough 
TTITLE15=You´re So Fine
EXTD=
EXTT0=
EXTT1=
EXTT2=
EXTT3=
EXTT4=
EXTT5=
EXTT6=
EXTT7=
EXTT8=
EXTT9=
EXTT10=
EXTT11=
EXTT12=
EXTT13=
EXTT14=
EXTT15=
PLAYORDER=
